<svg width="1024" height="1024" viewBox="0 0 1024 1024" fill="none" xmlns="http://www.w3.org/2000/svg">
<path d="M400.988 740.558C373.83 723.262 343.653 693.139 324.611 667.184C267.668 589.558 252.482 503.313 265.765 410.1C284.549 278.282 347.253 205.45 431.803 110.367C444.519 96.068 483.888 46.5625 496.224 37.4648C506.138 52.4187 599.203 202.009 598.317 207.154C598.274 207.405 598.187 207.649 598.122 207.895C582.466 205.172 569.136 203.04 553.905 198.334C547.281 201.282 535.442 206.452 529.985 210.561C485.061 244.388 442.156 301.645 422.64 353.866C397.988 419.828 392.383 490.039 422.439 554.865C440.586 594.007 461.266 611.601 494.731 635.599C503.956 641.017 513.59 646.497 522.609 652.195C503.533 696.365 471.225 733.541 430.133 758.605C420.76 753.644 409.545 746.935 400.988 740.558Z" fill="#70C6B7"/>
<path d="M494.731 635.598C503.956 641.016 513.591 646.496 522.609 652.193C503.533 696.364 471.225 733.54 430.133 758.604C420.761 753.643 409.546 746.934 400.988 740.557C444.932 710.244 470.22 682.363 494.731 635.598Z" fill="#3C747C"/>
<path d="M459.734 426.57C482 420.546 504.427 414.417 527.163 411.419C609.813 400.523 692.16 418.786 763.91 460.607C816.774 490.323 862.783 533.299 900.193 580.798C933.426 622.993 958.586 675.635 983.127 723.548C990.805 738.538 1020.27 792.539 1022.48 804.377C988.835 812.155 947.306 817.016 912.744 824.317C900.294 826.95 837.563 838.801 827.677 838.797C835.091 825.013 842.805 811.39 850.81 797.939C849.87 786.873 848.202 754.905 844.3 746.371C811.236 674.04 749.756 607.424 678.532 573.895C608.754 541.048 557.618 539.811 488.874 563.797C478.595 567.88 468.074 572.597 457.885 576.991C457.3 576.335 456.732 575.666 456.179 574.984C429.297 541.652 419.459 482.836 423.678 440.748C435.594 434.963 447.281 431.031 459.734 426.57Z" fill="#70C6B7"/>
<path d="M423.678 440.752C435.594 434.967 447.281 431.035 459.734 426.574C455.637 474.263 460.206 523.485 488.874 563.801C478.595 567.884 468.074 572.601 457.885 576.995C457.3 576.339 456.732 575.67 456.179 574.988C429.297 541.656 419.459 482.84 423.678 440.752Z" fill="#3C747C"/>
<path d="M564.837 567.441C607.144 565.888 661.62 582.401 695.97 607.428C695.708 619.72 695.285 632.598 693.243 644.731C651.209 850.435 462.704 963.163 261.867 970.351C205.574 972.364 149.61 971.69 93.4082 972.782C102.586 939.38 116.637 901.375 126.365 866.984C131.509 848.805 146.169 797.785 152.715 782.327C163.86 795.489 169.268 801.845 177.17 817.584C189.67 824.388 201.489 832.569 213.342 840.459C231.89 841.501 250.657 839.011 269.075 837.463C367.244 829.218 464.193 780.104 521.158 698.521C541.888 668.832 556.906 638.481 561.817 602.185C563.167 590.635 564.175 579.048 564.837 567.441Z" fill="#70C6B7"/>
<path d="M564.836 567.441C607.143 565.888 661.619 582.401 695.969 607.428C695.707 619.72 695.284 632.598 693.242 644.731L692.244 642.011C672.444 626.335 582.457 589.835 561.816 602.185C563.166 590.635 564.174 579.048 564.836 567.441Z" fill="#3C747C"/>
<path d="M206.113 471.702C214.433 464.772 231.575 453.941 241.483 449.402C241.671 522.892 250.124 577.429 284.762 643.002C268.913 641.656 251.827 640.076 236.082 638.009C231.334 637.719 228.603 636.62 225.129 639.714C217.115 646.852 211.696 656.303 206.021 664.902C180.657 703.344 166.048 738.663 152.712 782.334C146.166 797.791 131.506 848.811 126.362 866.991C116.634 901.382 102.583 939.387 93.4051 972.789C67.0336 941.324 16.0432 829.627 0 787.853C6.16926 767.584 14.8008 747.346 21.87 727.413C57.9476 625.677 117.037 535.612 206.113 471.702Z" fill="#3C747C"/>
<path d="M206.115 471.702C214.436 464.772 231.578 453.941 241.485 449.402C241.674 522.892 250.126 577.429 284.764 643.002C268.916 641.656 251.83 640.076 236.084 638.009C238.853 637.909 240.445 638.2 242.54 636.457C242.58 628.066 236.111 619.821 232.964 611.717C226.579 595.282 221.684 578.001 217.787 560.851C213.961 543.716 211.127 526.373 209.298 508.911C208.354 500.172 208.054 476.95 206.115 471.702Z" fill="#214A51"/>
<path d="M656.847 790.145C661.586 799.47 667.068 815.941 669.125 826.119C671.402 831.349 671.221 833.136 677.368 835.463C706.86 846.62 800.419 847.274 827.677 838.791C837.562 838.796 900.294 826.944 912.744 824.312C947.306 817.01 988.835 812.149 1022.48 804.371C994.507 853.759 962.382 900.683 926.455 944.634C919.836 952.752 906.487 969.388 898.928 976.3C769.965 991.932 676.604 991.057 557.68 935.25C547.104 930.557 532.173 922.309 522.543 916.153C533.892 907.385 548.565 898.327 560.55 889.666C579.371 875.844 596.914 860.364 612.966 843.408C629.965 825.611 641.093 807.964 656.847 790.145Z" fill="#3C747C"/>
<path d="M656.847 790.145C661.586 799.47 667.068 815.941 669.125 826.119C637.737 873.204 604.603 903.217 557.68 935.25C547.104 930.557 532.173 922.309 522.543 916.153C533.892 907.385 548.565 898.327 560.55 889.666C579.371 875.844 596.914 860.364 612.966 843.408C629.965 825.611 641.093 807.964 656.847 790.145Z" fill="#214A51"/>
<path d="M496.227 37.4648C510.056 41.1491 530.435 43.7103 545.643 46.9584C580.006 54.4722 614.081 63.2522 647.799 73.2759C662.291 77.5104 682.403 83.0424 696.058 88.3909C705.536 101.007 724.38 136.12 731.648 150.54C774.17 234.877 797.591 310.61 795.568 405.394C795.968 415.795 792.604 441.923 791.332 453.526C725.723 414.03 695.34 404.528 621.77 390.603C625.783 385.14 645.829 363.599 651.403 360.749C663.685 340.088 616.281 219.093 598.125 207.895C598.189 207.649 598.277 207.405 598.319 207.154C599.206 202.009 506.141 52.4187 496.227 37.4648Z" fill="#3C747C"/>
<path d="M621.768 390.596C625.781 385.134 645.827 363.592 651.401 360.742C655.582 363.388 662.098 364.507 667.021 365.44C712.849 374.132 752.587 391.581 793.119 414.48C794.366 410.791 794.827 409.201 795.566 405.387C795.966 415.789 792.602 441.916 791.33 453.519C725.72 414.024 695.338 404.521 621.768 390.596Z" fill="#214A51"/>
</svg>
